#!OML:ASF F:\VICON\USERDATA\INSTALL\rory3\rory3.ASF
:FULLY-SPECIFIED
:DEGREES
154
root 1.1701483738590526 17.94826147455309 43.32975760808688 -2.6878780499994273 -1.7975128496237074 -1.044148204590868
lfemur 7.848051070697283 -3.8717359578030406 -21.823181639090386
ltibia 44.45496259511638
lfoot -13.997459721239121 -1.023461041252585
ltoes -14.448435374785486
rfemur -11.75958599583967 3.586622587739311 24.54156007855105
rtibia 31.358960413116513
rfoot -18.466806748608555 -9.466911568261786
rtoes -4.377611465856517
lowerback 8.765273002893457 -1.3434666438431684 0.7224394296870871
upperback -0.1343645725854936 -1.596844071484298 1.9375491590938005
thorax -5.116064035708117 -0.9337197738280556 2.4761628546399472
lowerneck -16.373210945345285 -2.9647385749845796 -1.6488229903840188
upperneck 21.917329762365938 -3.75606099936488 -0.059980828842718714
head 9.723818834417722 -1.856606586782509 -0.3017289339762659
lclavicle -3.616362944146996e-16 5.80356288845361e-16
lhumerus -29.35558156581125 3.0406650638668458 79.93997214918379
lradius 24.809137090134914
lwrist 8.232857819343536
lhand -28.6322022064649 21.741362112578386
lfingers 7.12502
lthumb -2.041175566968031 51.88786720137767
rclavicle -3.616362943504035e-16 5.803562888888744e-16
rhumerus -27.36549476901537 -14.874305680630737 -78.12262924720254
rradius 32.769612954164295
rwrist 2.1134353380040567
rhand -18.049431439736992 21.794303361982152
rfingers 7.12502
rthumb 8.438372514425051 -6.129283678156535
155
root 1.1538831729300474 17.95205945677754 43.10050689918294 -2.644499465579033 -1.7848161797317599 -1.3477237514070997
lfemur 7.5066287646089105 -3.7181303914199857 -21.30099993178491
ltibia 45.14781762297315
lfoot -14.378806616338368 -0.7899135363799257
ltoes -12.237420860127276
rfemur -11.156346710671764 3.6429416922929283 24.811127368704607
rtibia 30.10658980122455
rfoot -17.948168877115563 -9.223245648651833
rtoes -4.800135745626913
lowerback 8.714030820559644 -1.2670051000748876 1.005380755574834
upperback -0.13802967892562712 -1.468375822487868 1.9932028951737037
thorax -5.129832747826191 -0.8682094632248316 2.4159574053672674
lowerneck -16.366218261823196 -2.954017523788579 -1.636798777509344
upperneck 22.04194333784687 -3.7387855969311152 -0.047797694582263794
head 9.775178901797153 -1.8480698130150792 -0.29016060503662994
lclavicle -3.616362944100913e-16 5.80356288848572e-16
lhumerus -28.808725233596395 3.591385377567092 80.02996312231299
lradius 24.736581614600038
lwrist 8.393807727254673
lhand -28.678336017975774 21.921543893387472
lfingers 7.12502
lthumb -2.0584660074880383 52.06502307458329
rclavicle -3.616362943488533e-16 5.803562888899651e-16
rhumerus -27.63572391831168 -14.933914602824093 -78.02854854405506
rradius 32.73317396819526
rwrist 1.96380970752777
rhand -18.04944716520596 21.879134013790555
rfingers 7.12502
rthumb 8.366710121393659 -5.960572671973279
156
root 1.1462271663134103 17.93696587329866 43.39434821874626 -2.967838031685574 -1.9152966961254305 -0.9952654073310153
lfemur 7.883640554799152 -3.695659487096247 -21.44174485090382
ltibia 45.35919849934827
lfoot -14.602589452812094 -0.6663502966556742
ltoes -12.195622150695456
rfemur -10.636872866797143 3.6717479259620474 24.62933441131828
rtibia 29.70555019739477
rfoot -17.762089393289937 -9.180506210069886
rtoes -5.579762084808691
lowerback 8.815019513967112 -1.1991361536824283 0.7333759426695372
upperback -0.10915194993715549 -1.3599992474622433 1.9652927866975611
thorax -5.067659338198614 -0.79761550252969 2.366081635522762
lowerneck -16.33927262328978 -2.943079579428058 -1.644155066549874
upperneck 22.12374421895525 -3.7108411800072836 -0.018650657751646427
head 9.79668417097365 -1.8384600859643776 -0.2575427379367618
lclavicle -3.616362944075628e-16 5.803562888503957e-16
lhumerus -29.07583141462284 3.330314203627202 79.87723298247137
lradius 24.622326224413772
lwrist 8.419683653452326
lhand -28.942480632597118 21.576439556131707
lfingers 7.12502
lthumb -2.354867080999263 51.620758718688705
rclavicle -3.6163629433877987e-16 5.80356288896888e-16
rhumerus -28.012433676629804 -15.1558886651761 -78.00510880880323
rradius 32.677475926963375
rwrist 1.8922897330644517
rhand -18.08821871558453 21.827363764818724
rfingers 7.12502
rthumb 8.239917865371453 -6.148504407692196
157
root 1.1483100283939356 17.930952651377897 43.61366111920865 -3.088256926512666 -1.7553471839257253 -0.8243220910479012
lfemur 7.8560576767160395 -3.7088842719514346 -21.43151420225984
ltibia 45.703791270424034
lfoot -14.721980802549234 -0.5962173845515486
ltoes -14.702004190574858
rfemur -10.213181875536442 3.517782140691974 24.485988970757763
rtibia 29.30324484617538
rfoot -17.691964341285022 -9.34682271712259
rtoes -5.896078744897895
lowerback 8.841932442113595 -1.195484364191162 0.6333967816671299
upperback -0.07859490854719312 -1.3777830847578327 1.92745589901424
thorax -5.012555909909681 -0.7987815966131981 2.3352168785895056
lowerneck -16.34664244606378 -2.9449753658806324 -1.6698326905453875
upperneck 22.11006113494484 -3.7219572854302867 0.01857668197180018
head 9.800691547666103 -1.8425983376470452 -0.24380026558501136
lclavicle -3.616362944160304e-16 5.803562888449381e-16
lhumerus -28.49904427118775 3.7848255043906764 80.00410749715495
lradius 24.270963471434825
lwrist 8.274643294264763
lhand -28.948743553859877 21.873508971604906
lfingers 7.12502
lthumb -2.4222170445366706 51.858960504466296
rclavicle -3.616362943435876e-16 5.803562888937961e-16
rhumerus -28.488334272705924 -15.46770681048412 -77.83746288185151
rradius 32.67707301127192
rwrist 2.0064328326703054
rhand -18.12442422620458 21.72088527466652
rfingers 7.12502
rthumb 8.14647919677856 -6.6330278213911305
158
root 1.1363487741654081 17.922981672096192 43.422121968391146 -3.1789539094479755 -1.6276665332585112 -0.8286119647363246
lfemur 7.718123089407582 -3.6673164858047906 -21.327104583830497
ltibia 46.20542418028659
lfoot -14.616264741645999 -0.2961647280264885
ltoes -14.099214561729248
rfemur -9.84112221621655 3.3671740340800405 24.439794735109412
rtibia 29.033393712658246
rfoot -17.70910502195857 -9.58023442157307
rtoes -6.776210701340635
lowerback 8.874589328788135 -1.1405436961829238 0.6602487209036525
upperback -0.056184706611562274 -1.3091828268408745 1.897541889771116
thorax -5.0453315660401845 -0.762169229058044 2.2261081766605386
lowerneck -16.315163759996274 -2.942195828058168 -1.7075757349562872
upperneck 21.912866274030385 -3.7266785627339365 0.0907110149878706
head 9.70049028343647 -1.8462470502187236 -0.20164269983980268
lclavicle -3.6163629440982394e-16 5.803562888490872e-16
lhumerus -28.781693202472585 3.4630001323143 79.96625215848368
lradius 23.978513257182367
lwrist 7.853437018027362
lhand -28.926978877462407 21.922974427127457
lfingers 7.12502
lthumb -2.4171624178649016 51.88512082286982
rclavicle -3.616362943479965e-16 5.803562888908458e-16
rhumerus -28.81855758732732 -15.908676046374444 -77.83308081815566
rradius 32.663020775488704
rwrist 2.455770413114351
rhand -18.081133022669803 21.734699177297745
rfingers 7.12502
rthumb 8.278934949565398 -6.426343807422939
159
root 1.1202711831917358 17.90785253231903 43.59581343151076 -3.370087529934175 -1.5965888507614248 -0.594897934687789
lfemur 7.884518793267263 -3.6242164590546233 -21.44482924753699
ltibia 46.339944658706926
lfoot -14.80265955442661 -0.31124153462177295
ltoes -13.481352990824291
rfemur -9.658587154535443 3.1887541975378344 24.160919041167496
rtibia 29.450509977455862
rfoot -17.568477177721988 -9.781493243550036
rtoes -7.197921559124734
lowerback 8.971398082231055 -1.057576321239392 0.4854640042391709
upperback -0.024094644525198328 -1.2061618241640661 1.8656616333073344
thorax -5.065431368199685 -0.7157352691141226 2.1495925279609693
lowerneck -16.33765958943905 -2.9415398630085896 -1.7124675874132356
upperneck 21.874332225000003 -3.7296774329086695 0.12364951226923626
head 9.70528759084957 -1.8467466157883874 -0.19396381082448197
lclavicle -3.616362944121084e-16 5.80356288847741e-16
lhumerus -28.472968391631106 3.5558374030223243 80.07825606251484
lradius 23.844047945721577
lwrist 7.88846203459944
lhand -28.922264615529595 21.699018220161722
lfingers 7.12502
lthumb -2.4043608821988256 51.66373073872314
rclavicle -3.6163629434696573e-16 5.803562888917488e-16
rhumerus -29.02959123676474 -16.196517342586937 -78.029386550279
rradius 32.64121127375776
rwrist 2.573133710551523
rhand -18.102784031151952 21.613653490485543
rfingers 7.12502
rthumb 8.28142235731523 -6.503229486420711
160
root 1.120470404316263 17.896500538749017 43.73401971737863 -3.4483394132038288 -1.4721460856792046 -0.5311530271974809
lfemur 7.516546161210245 -3.523733925348841 -21.360818197725607
ltibia 46.9752750135278
lfoot -14.631050598658263 -0.49211558582240134
ltoes -14.24606134368997
rfemur -9.765055470421387 2.9060546625877133 23.852359481232774
rtibia 30.28072267500559
rfoot -17.33306184512763 -9.86529843027109
rtoes -7.51876924785154
lowerback 9.011037209604464 -1.0151328213967377 0.46788126622548554
upperback 0.03944265062988908 -1.1851833113298456 1.8529732320212573
thorax -5.012264786854487 -0.6946028395110773 2.121509586453421
lowerneck -16.387359626787145 -2.9406834098646497 -1.7061589280594849
upperneck 21.806026530904788 -3.736820573347995 0.1465023192698432
head 9.685554831017214 -1.8504476547697022 -0.18997049474941727
lclavicle -3.6163629441035036e-16 5.803562888488983e-16
lhumerus -28.859570948171726 3.0269103393546506 79.93599942818956
lradius 23.663786410068568
lwrist 8.223069475540694
lhand -28.9132980475292 21.782303239162424
lfingers 7.12502
lthumb -2.3804133793176705 51.76267018062536
rclavicle -3.6163629435357313e-16 5.803562888872986e-16
rhumerus -29.248953818417984 -16.498903495028397 -78.04752243043211
rradius 32.69905343512488
rwrist 2.5598802576123387
rhand -18.10379268908822 21.553450061000717
rfingers 7.12502
rthumb 8.337453171718309 -6.480440679617191
